<svg width="28" height="33" viewBox="0 0 28 33" fill="none" xmlns="http://www.w3.org/2000/svg">
<path d="M25.6814 26.5794V18.1922C25.6814 13.0092 22.3138 8.59806 17.6519 7.03127C18.6439 6.05953 19.261 4.70643 19.261 3.21136V1.07125C19.261 0.277504 18.4239 -0.241405 17.7124 0.114191C15.3321 1.30455 12.4899 1.30455 10.109 0.114191C9.3967 -0.242046 8.56046 0.278978 8.56046 1.07125V3.21136C8.56046 4.70643 9.17762 6.05953 10.1696 7.03127C5.50764 8.59806 2.14011 13.0091 2.14011 18.1922V26.5794C0.894503 27.021 2.13935e-09 28.2111 2.13935e-09 29.6062C-6.40923e-05 31.3763 1.44007 32.8164 3.21017 32.8164H24.6113C26.3814 32.8164 27.8215 31.3763 27.8215 29.6062C27.8215 28.2111 26.927 27.021 25.6814 26.5794ZM10.7006 2.65419C12.7845 3.30968 15.0371 3.30968 17.1209 2.65419V3.21143C17.1209 4.98152 15.6808 6.4216 13.9107 6.4216C12.1406 6.4216 10.7006 4.98152 10.7006 3.21143V2.65419ZM24.6113 30.6763H3.21017C2.62012 30.6763 2.14011 30.1963 2.14011 29.6062C2.14011 29.0162 2.62012 28.5362 3.21017 28.5362C3.80112 28.5362 4.28023 28.0571 4.28023 27.4661V18.1923C4.28023 12.882 8.60052 8.56178 13.9107 8.56178C19.221 8.56178 23.5413 12.8821 23.5413 18.1923V27.4661C23.5413 28.0571 24.0204 28.5362 24.6113 28.5362C25.2014 28.5362 25.6814 29.0162 25.6814 29.6062C25.6814 30.1962 25.2014 30.6763 24.6113 30.6763Z" fill="#FF2168"/>
<path d="M14.3675 18.673C13.2448 18.0796 12.084 17.4659 12.084 16.7655C12.084 15.7821 12.884 14.9821 13.8674 14.9821C14.8508 14.9821 15.6508 15.7821 15.6508 16.7655C15.6508 17.3565 16.1299 17.8356 16.7209 17.8356C17.3118 17.8356 17.7909 17.3565 17.7909 16.7655C17.7909 14.973 16.5822 13.4586 14.9374 12.9915V12.4853C14.9374 11.8943 14.4583 11.4152 13.8674 11.4152C13.2764 11.4152 12.7973 11.8943 12.7973 12.4853V12.9915C11.1525 13.4586 9.94385 14.973 9.94385 16.7655C9.94385 18.7554 11.8421 19.7588 13.3674 20.5651C14.49 21.1585 15.6508 21.7721 15.6508 22.4725C15.6508 23.4559 14.8508 24.2559 13.8674 24.2559C12.884 24.2559 12.084 23.4559 12.084 22.4725C12.084 21.8815 11.6049 21.4024 11.0139 21.4024C10.423 21.4024 9.94385 21.8815 9.94385 22.4725C9.94385 24.2649 11.1525 25.7794 12.7973 26.2465V26.7527C12.7973 27.3437 13.2764 27.8228 13.8674 27.8228C14.4583 27.8228 14.9374 27.3437 14.9374 26.7527V26.2465C16.5823 25.7794 17.7909 24.2649 17.7909 22.4725C17.7909 20.4826 15.8927 19.4793 14.3675 18.673Z" fill="#FF2168"/>
</svg>
