<svg width="29" height="30" viewBox="0 0 29 30" fill="none" xmlns="http://www.w3.org/2000/svg">
<path fill-rule="evenodd" clip-rule="evenodd" d="M5.64046 5.22692C3.45143 7.08014 2.08963 9.76394 2.08963 13.129V15.8436C2.08963 20.4359 3.49026 23.4753 5.65055 25.3778C7.81175 27.2811 10.8347 28.1366 14.2705 28.1481H14.3943H15.2459C18.7109 28.1481 21.761 27.294 23.9373 25.3836C26.0975 23.4873 27.4974 20.4612 27.4974 15.8967V13.1821C27.4974 9.81705 26.1356 7.13325 23.9465 5.28004C21.7468 3.41777 18.6773 2.36784 15.2459 2.36784H14.3943H14.0217V2.31777C10.7194 2.38086 7.77173 3.42261 5.64046 5.22692ZM4.74822 26.4024C7.18324 28.5468 10.4756 29.4599 14.0217 29.5112V29.5134H14.269L14.341 29.5135V29.5134H14.3943H15.2459C18.9133 29.5134 22.3302 28.611 24.8379 26.4096C27.3616 24.1942 28.8626 20.7532 28.8626 15.8967V13.1821C28.8626 9.41487 27.3236 6.3502 24.8287 4.23804C22.3445 2.13493 18.9469 1.00257 15.2459 1.00257H14.3943H14.341V0.949463C10.6401 0.949463 7.24252 2.08182 4.75831 4.18493C2.26341 6.29709 0.724365 9.36176 0.724365 13.129V15.8436C0.724365 20.7256 2.22458 24.1798 4.74822 26.4024ZM20.6748 18.505C21.207 17.3873 21.207 13.0227 20.728 11.8517C20.5683 11.4259 20.249 11.1066 19.8231 10.8937C19.0247 10.6275 12.3182 10.6275 10.1359 10.8404C9.71011 10.8404 9.33752 11.0533 9.07139 11.3727C8.27299 12.3308 8.37944 17.1212 8.80525 18.2921C8.96493 18.7712 9.28429 19.0905 9.76333 19.2502C10.8279 19.6228 19.1844 19.6228 19.9828 19.197C20.3022 19.0373 20.5151 18.8244 20.6748 18.505ZM16.1478 14.4612C16.4835 14.6376 16.8209 14.8148 17.1618 14.9921C16.4965 15.3381 15.8445 15.684 15.1924 16.03C14.5404 16.376 13.8884 16.722 13.2231 17.0679V12.9695C14.2128 13.4446 15.1731 13.9491 16.1478 14.4612Z" fill="white"/>
</svg>
