<svg width="29" height="30" viewBox="0 0 29 30" fill="none" xmlns="http://www.w3.org/2000/svg">
<path fill-rule="evenodd" clip-rule="evenodd" d="M5.63509 5.22692C3.44605 7.08014 2.08425 9.76394 2.08425 13.129V15.8436C2.08425 20.4359 3.48489 23.4753 5.64518 25.3778C7.80638 27.2811 10.8293 28.1366 14.2651 28.1481H14.3886H15.2402C18.7052 28.1481 21.7553 27.294 23.9315 25.3836C26.0918 23.4873 27.4916 20.4612 27.4916 15.8967V13.1821C27.4916 9.81705 26.1299 7.13325 23.9408 5.28004C21.7411 3.41777 18.6716 2.36784 15.2402 2.36784H14.3886H14.016V2.31777C10.7139 2.38093 7.76628 3.42267 5.63509 5.22692ZM4.74285 26.4024C7.1778 28.5468 10.4701 29.4598 14.016 29.5112V29.5134H14.2636L14.3357 29.5135V29.5134H14.3886H15.2402C18.9076 29.5134 22.3245 28.611 24.8322 26.4096C27.3559 24.1942 28.8569 20.7532 28.8569 15.8967V13.1821C28.8569 9.41487 27.3179 6.3502 24.823 4.23804C22.3388 2.13493 18.9412 1.00257 15.2402 1.00257H14.3886H14.3357V0.949463C10.6347 0.949463 7.23715 2.08182 4.75294 4.18493C2.25804 6.29709 0.718994 9.36176 0.718994 13.129V15.8436C0.718994 20.7256 2.2192 24.1798 4.74285 26.4024ZM19.4985 10.3081C20.084 10.8404 20.4033 11.5323 20.4565 12.2775C20.563 13.1824 20.6694 17.4937 20.4033 18.505C20.0307 19.7824 19.1791 20.5808 17.8484 20.7937C16.8371 20.9534 12.3661 20.9534 11.4613 20.7405C10.1306 20.4212 9.33219 19.5695 9.11929 18.2389C8.95961 17.2808 8.90638 12.7033 9.17251 11.7452C9.5451 10.4678 10.3967 9.72263 11.6742 9.50972C12.8451 9.29681 16.0387 9.35004 17.3694 9.45649C18.1678 9.50972 18.913 9.72262 19.4985 10.3081ZM17.5291 19.7824C18.5936 19.676 19.2323 19.0373 19.392 18.026C19.5517 17.0147 19.5517 13.342 19.4452 12.3307C19.3388 11.2662 18.7001 10.6275 17.6888 10.4678C16.6775 10.3613 13.0048 10.3613 11.9935 10.4678C10.9822 10.5743 10.3435 11.213 10.1838 12.2243C10.0241 13.2888 10.0774 17.2808 10.1838 18.0792C10.2903 18.9308 10.7693 19.4631 11.5677 19.676C12.4193 19.9421 16.6242 19.8889 17.5291 19.7824ZM11.7806 15.1517C11.7806 13.5017 13.1113 12.171 14.7613 12.171C16.4113 12.171 17.742 13.5017 17.742 15.1517C17.742 16.8018 16.4113 18.1324 14.7613 18.1324C13.1113 18.1324 11.7806 16.8018 11.7806 15.1517ZM12.8451 15.1517C12.8451 16.2163 13.6968 17.0679 14.7613 17.0679C15.8258 17.0679 16.6775 16.2163 16.6775 15.1517C16.6775 14.0872 15.8258 13.2356 14.7613 13.2356C13.6968 13.2356 12.8451 14.0872 12.8451 15.1517ZM17.8484 12.7565C18.221 12.7565 18.5404 12.4372 18.5404 12.0646C18.5404 11.692 18.2742 11.3726 17.8484 11.3726C17.4759 11.3726 17.1565 11.692 17.1565 12.0646C17.1565 12.4372 17.4759 12.7565 17.8484 12.7565Z" fill="white"/>
</svg>
