<svg width="29" height="30" viewBox="0 0 29 30" fill="none" xmlns="http://www.w3.org/2000/svg">
<path fill-rule="evenodd" clip-rule="evenodd" d="M5.62898 5.22692C3.43995 7.08014 2.07815 9.76394 2.07815 13.129V15.8436C2.07815 20.4359 3.47879 23.4753 5.63907 25.3778C7.80027 27.2811 10.8232 28.1366 14.259 28.1481H14.3829H15.2345C18.6995 28.1481 21.7496 27.294 23.9258 25.3836C26.0861 23.4873 27.4859 20.4612 27.4859 15.8967V13.1821C27.4859 9.81705 26.1241 7.13325 23.9351 5.28004C21.7354 3.41777 18.6659 2.36784 15.2345 2.36784H14.3829H14.0103V2.31777C10.708 2.38085 7.76026 3.4226 5.62898 5.22692ZM4.73675 26.4024C7.17178 28.5469 10.4642 29.4599 14.0103 29.5112V29.5134H14.2575L14.3296 29.5135V29.5134H14.3829H15.2345C18.9019 29.5134 22.3188 28.611 24.8265 26.4096C27.3502 24.1942 28.8512 20.7532 28.8512 15.8967V13.1821C28.8512 9.41487 27.3122 6.3502 24.8172 4.23804C22.333 2.13493 18.9355 1.00257 15.2345 1.00257H14.3829H14.3296V0.949463C10.6286 0.949463 7.23105 2.08182 4.74684 4.18493C2.25194 6.29709 0.712891 9.36176 0.712891 13.129V15.8436C0.712891 20.7256 2.2131 24.1798 4.73675 26.4024ZM19.0136 12.9694L19.0668 12.9162C19.0765 12.908 19.0862 12.9 19.0959 12.892C19.4022 12.6369 19.6539 12.4274 19.7055 12.1178C19.7588 12.0645 19.7987 12.0113 19.8386 11.9581C19.8785 11.9048 19.9184 11.8516 19.9717 11.7984C19.5991 11.9581 19.1733 12.0645 18.7474 12.1178C19.2265 11.7984 19.5458 11.4258 19.7055 10.8935H19.6523C19.2797 11.1064 18.8007 11.2661 18.3749 11.3726C18.3216 11.3726 18.3216 11.3726 18.2684 11.3194C17.7361 10.7871 17.0974 10.5742 16.3523 10.6806C15.7135 10.7871 15.2345 11.1597 14.8619 11.6919C14.5958 12.1178 14.4893 12.5968 14.5426 13.1291C14.5958 13.2355 14.5958 13.2887 14.5958 13.3952C12.7861 13.2887 11.2425 12.4903 10.0715 11.1064C9.80539 11.5855 9.75216 12.1178 9.85861 12.7032C9.96507 13.2355 10.2844 13.7145 10.7635 14.0339C10.4441 14.0339 10.1247 13.9275 9.80539 13.7678C9.80539 14.1936 9.91184 14.5662 10.1247 14.9388C10.4441 15.471 10.9231 15.7904 11.5619 15.9501H11.5086C11.1893 16.0565 10.8699 16.0565 10.5506 16.0033C10.7635 16.6952 11.4554 17.4936 12.6264 17.5469C12.307 17.813 11.9345 18.0259 11.5619 18.1856C10.8699 18.5049 10.1247 18.6114 9.37958 18.5049L9.4328 18.5582C10.4973 19.2501 11.6683 19.5695 12.9458 19.5162C13.0833 19.4991 13.2152 19.4874 13.3452 19.4759C13.6177 19.4519 13.8817 19.4286 14.17 19.3566C15.3409 19.0904 16.3523 18.5049 17.2039 17.6533C17.6829 17.121 18.0555 16.5356 18.3749 15.8968C18.6942 15.2581 18.8539 14.6194 18.9604 13.9275C19.0136 13.6081 19.0136 13.2888 19.0136 12.9694V12.9694Z" fill="white"/>
</svg>
