<svg width="29" height="30" viewBox="0 0 29 30" fill="none" xmlns="http://www.w3.org/2000/svg">
<path fill-rule="evenodd" clip-rule="evenodd" d="M14.3771 2.31424H14.324V2.31445C10.859 2.31445 7.80888 3.16855 5.63264 5.07894C3.47241 6.97528 2.07254 10.0013 2.07254 14.5659V17.2804C2.07254 20.6455 3.43433 23.3293 5.62337 25.1825C7.80481 27.0293 10.8416 28.0772 14.2385 28.0945H14.3771H15.2287C18.6601 28.0945 21.7296 27.0446 23.9293 25.1823C26.1183 23.3291 27.4801 20.6453 27.4801 17.2802V14.5657C27.4801 10.0011 26.0802 6.97506 23.92 5.07873C21.7438 3.16833 18.6937 2.31424 15.2287 2.31424H14.3771ZM14.3771 29.4598H14.324V29.46L14.2352 29.4598H14.0045V29.4572C10.4278 29.3939 7.15378 28.267 4.74122 26.2245C2.24632 24.1124 0.707275 21.0477 0.707275 17.2804V14.5659C0.707275 9.70931 2.20825 6.26834 4.73196 4.05293C7.16669 1.91562 10.4585 1.0028 14.0045 0.951494V0.948975H14.3771H15.2287C18.8961 0.948975 22.313 1.85135 24.8207 4.05271C27.3444 6.26812 28.8454 9.70909 28.8454 14.5657V17.2802C28.8454 21.0475 27.3063 24.1121 24.8114 26.2243C22.3272 28.3274 18.9297 29.4598 15.2287 29.4598H14.3771ZM15.3885 16.4822C15.3885 15.5773 15.5482 14.7257 16.666 14.7257C17.7305 14.7257 17.7305 15.737 17.6773 16.429V19.729H19.7531V16.0031C19.7531 14.1934 19.3805 12.8096 17.2514 12.8096C16.2401 12.8096 15.5482 13.3951 15.2821 13.9273V13.0225H13.2595V19.8355H15.3885V16.4822ZM11.9821 13.0229H9.85303V19.7826H11.9821V13.0229ZM12.1417 10.8934C12.1417 10.2015 11.6095 9.66921 10.9175 9.66921C10.2256 9.66921 9.6933 10.2015 9.6933 10.8934C9.6933 11.5854 10.2256 12.1176 10.9175 12.1176C11.6095 12.1176 12.1417 11.5854 12.1417 10.8934Z" fill="white"/>
</svg>
