<svg width="18" height="15" viewBox="0 0 18 15" fill="none" xmlns="http://www.w3.org/2000/svg">
<path d="M1.88889 12.5556L6.33333 7.22222M16.1111 12.5556L11.6667 7.22222M1 3.66667L7.42222 7.94809C7.99244 8.32827 8.27751 8.5184 8.58569 8.59218C8.85804 8.65751 9.14196 8.65751 9.41431 8.59218C9.72249 8.5184 10.0076 8.32827 10.5778 7.94809L17 3.66667M3.84444 13.4444H14.1556C15.1512 13.4444 15.6491 13.4444 16.0293 13.2507C16.3638 13.0803 16.6358 12.8083 16.8062 12.4738C17 12.0935 17 11.5956 17 10.6V3.84444C17 2.8488 17 2.35097 16.8062 1.97068C16.6358 1.63617 16.3638 1.3642 16.0293 1.19377C15.6491 1 15.1512 1 14.1556 1H3.84444C2.8488 1 2.35097 1 1.97068 1.19377C1.63617 1.3642 1.3642 1.63617 1.19377 1.97068C1 2.35097 1 2.84879 1 3.84444V10.6C1 11.5956 1 12.0935 1.19377 12.4738C1.3642 12.8083 1.63617 13.0803 1.97068 13.2507C2.35097 13.4444 2.84879 13.4444 3.84444 13.4444Z" stroke="white" stroke-width="1.77778" stroke-linecap="round" stroke-linejoin="round"/>
</svg>
