<svg width="19" height="18" viewBox="0 0 19 18" fill="none" xmlns="http://www.w3.org/2000/svg">
<path d="M13.0355 12.2995L13.4793 11.8589L12.4488 10.8239L12.0051 11.2646L13.0355 12.2995ZM14.9696 11.6743L16.831 12.6848L17.529 11.4026L15.6676 10.3921L14.9696 11.6743ZM17.1893 14.6932L15.8053 16.0675L16.8357 17.1024L18.2197 15.7281L17.1893 14.6932ZM14.9619 16.51C13.5493 16.6414 9.89454 16.5243 5.93754 12.5951L4.90709 13.63C9.2252 17.9177 13.335 18.1271 15.0975 17.9631L14.9619 16.51ZM5.93754 12.5951C2.1657 8.8498 1.54089 5.69972 1.46312 4.3331L0.00404208 4.41591C0.101919 6.13593 0.875573 9.6269 4.90709 13.63L5.93754 12.5951ZM7.2775 6.58195L7.55692 6.30448L6.52652 5.26957L6.24708 5.54704L7.2775 6.58195ZM7.77936 2.76758L6.55083 1.12874L5.38091 2.00336L6.60943 3.64222L7.77936 2.76758ZM2.41885 0.772033L0.889603 2.29051L1.92005 3.32543L3.44929 1.80694L2.41885 0.772033ZM6.76229 6.0645C6.24708 5.54704 6.24638 5.54773 6.24568 5.54843C6.24544 5.54867 6.24474 5.54938 6.24427 5.54985C6.24331 5.55082 6.24234 5.55179 6.24135 5.55279C6.23937 5.5548 6.23733 5.5569 6.23522 5.55908C6.23101 5.56344 6.22654 5.56817 6.22185 5.57327C6.21245 5.58346 6.20213 5.59511 6.19108 5.60828C6.16899 5.6346 6.14396 5.66701 6.11766 5.70578C6.06492 5.78351 6.00745 5.88628 5.95869 6.01553C5.85919 6.27925 5.80584 6.62689 5.87272 7.05738C6.00351 7.89926 6.5841 9.01131 8.07135 10.4881L9.10176 9.45313C7.70999 8.07114 7.37844 7.23012 7.31686 6.83364C7.28753 6.64495 7.31793 6.55208 7.32631 6.53009C7.33138 6.51649 7.33381 6.5151 7.32758 6.52439C7.32446 6.52894 7.3193 6.53605 7.31121 6.54563C7.30721 6.55043 7.30244 6.55586 7.29689 6.56191C7.29406 6.56494 7.29114 6.56812 7.28783 6.57145C7.28627 6.57313 7.28461 6.57483 7.28286 6.57658C7.28198 6.57746 7.2811 6.57834 7.28023 6.57924C7.27984 6.57969 7.27915 6.58037 7.27886 6.58059C7.27818 6.58127 7.2775 6.58195 6.76229 6.0645ZM8.07135 10.4881C9.55909 11.9653 10.6779 12.5402 11.5223 12.6696C11.9538 12.7357 12.3017 12.683 12.5656 12.5848C12.695 12.5366 12.7981 12.4799 12.8761 12.4277C12.915 12.4017 12.9476 12.3769 12.974 12.355C12.9872 12.3441 12.9989 12.3339 13.0091 12.3245C13.0143 12.3198 13.0191 12.3155 13.0235 12.3113C13.0257 12.3091 13.0278 12.3071 13.0298 12.3052C13.0308 12.3042 13.0317 12.3032 13.0327 12.3022C13.0332 12.3017 13.034 12.3011 13.0342 12.3009C13.0349 12.3002 13.0355 12.2995 12.5203 11.782C12.0051 11.2646 12.0058 11.2639 12.0065 11.2632C12.0067 11.263 12.0074 11.2623 12.0079 11.2619C12.0087 11.261 12.0096 11.2601 12.0105 11.2592C12.0123 11.2576 12.014 11.2559 12.0157 11.2543C12.0191 11.2511 12.0223 11.2481 12.0253 11.2453C12.0313 11.2399 12.0368 11.2351 12.0417 11.2312C12.0512 11.2232 12.0583 11.2182 12.0627 11.2152C12.0718 11.2091 12.0699 11.2118 12.0555 11.2172C12.0316 11.226 11.9361 11.2565 11.7439 11.227C11.3413 11.1654 10.4931 10.8346 9.10176 9.45313L8.07135 10.4881ZM6.55083 1.12874C5.55772 -0.196028 3.60488 -0.405651 2.41885 0.772033L3.44929 1.80694C3.9673 1.29257 4.8873 1.34493 5.38091 2.00336L6.55083 1.12874ZM1.46312 4.3331C1.44395 3.99636 1.59861 3.64459 1.92005 3.32543L0.889603 2.29051C0.366098 2.81033 -0.0454615 3.54618 0.00404208 4.41591L1.46312 4.3331ZM15.8053 16.0675C15.5375 16.3334 15.2505 16.4831 14.9619 16.51L15.0975 17.9631C15.8132 17.8964 16.3997 17.5354 16.8357 17.1024L15.8053 16.0675ZM7.55692 6.30448C8.51611 5.35203 8.58743 3.84551 7.77936 2.76758L6.60943 3.64222C7.00255 4.16662 6.9441 4.85493 6.52652 5.26957L7.55692 6.30448ZM16.831 12.6848C17.6278 13.1174 17.7519 14.1345 17.1893 14.6932L18.2197 15.7281C19.5256 14.4314 19.1229 12.2679 17.529 11.4026L16.831 12.6848ZM13.4793 11.8589C13.8535 11.4874 14.4557 11.3953 14.9696 11.6743L15.6676 10.3921C14.6118 9.81896 13.3016 9.97726 12.4488 10.8239L13.4793 11.8589Z" fill="white"/>
</svg>
