<svg width="35" height="30" viewBox="0 0 35 30" fill="none" xmlns="http://www.w3.org/2000/svg">
<path d="M12.1662 22.8005H5.13825C4.83878 22.8005 4.55157 22.6804 4.33981 22.4666C4.12805 22.2528 4.00908 21.9628 4.00908 21.6605V2.28005H1.75075C1.45128 2.28005 1.16407 2.15994 0.952307 1.94614C0.740547 1.73235 0.621582 1.44238 0.621582 1.14002C0.621582 0.837671 0.740547 0.547702 0.952307 0.333906C1.16407 0.12011 1.45128 0 1.75075 0H33.3674C33.6669 0 33.9541 0.12011 34.1659 0.333906C34.3776 0.547702 34.4966 0.837671 34.4966 1.14002C34.4966 1.44238 34.3776 1.73235 34.1659 1.94614C33.9541 2.15994 33.6669 2.28005 33.3674 2.28005H31.1091V21.6605C31.1091 21.9628 30.9901 22.2528 30.7784 22.4666C30.5666 22.6804 30.2794 22.8005 29.9799 22.8005H22.9655L26.877 29.6406H24.2708L20.3594 22.8005H14.7723L10.8609 29.6406H8.25475L12.1662 22.8005ZM28.8507 2.28005H6.26742V20.5204H28.8507V2.28005ZM11.5835 14.4874C11.4785 14.5934 11.3539 14.6775 11.2167 14.7349C11.0796 14.7922 10.9326 14.8218 10.7841 14.8218C10.6356 14.8218 10.4886 14.7922 10.3514 14.7349C10.2143 14.6775 10.0896 14.5934 9.98463 14.4874C9.87965 14.3814 9.79637 14.2556 9.73955 14.1171C9.68273 13.9786 9.65349 13.8302 9.65349 13.6803C9.65349 13.5304 9.68273 13.382 9.73955 13.2435C9.79637 13.105 9.87965 12.9791 9.98463 12.8732L15.1946 7.61536L19.6209 10.967L23.4533 6.12877C23.543 6.00392 23.6569 5.89875 23.788 5.81962C23.9192 5.74048 24.0648 5.68904 24.2162 5.6684C24.3676 5.64775 24.5216 5.65834 24.6688 5.69952C24.816 5.74069 24.9534 5.8116 25.0727 5.90795C25.192 6.0043 25.2907 6.12409 25.3628 6.26007C25.4349 6.39604 25.479 6.54537 25.4922 6.69903C25.5055 6.85268 25.4878 7.00746 25.4401 7.15399C25.3924 7.30052 25.3158 7.43576 25.2148 7.55152L20.0161 14.1158L15.4069 10.625L11.5835 14.4851V14.4874Z" fill="#19D179"/>
</svg>
