<svg width="145" height="37" viewBox="0 0 145 37" fill="none" xmlns="http://www.w3.org/2000/svg">
<g clip-path="url(#clip0_1_250)">
<path d="M26.6713 36.7452H19.0127L29.9535 1.45996H37.6121L26.6713 36.7452Z" fill="url(#paint0_linear_1_250)"/>
<path d="M8.05019 36.7452H0.391602L11.3324 1.45996H19.0125L8.05019 36.7452Z" fill="url(#paint1_linear_1_250)"/>
<path d="M17.3607 36.7452H9.70215L20.643 1.45996H28.3016L17.3607 36.7452Z" fill="url(#paint2_linear_1_250)"/>
<path d="M41.9455 1.26685H47.3516L43.4686 13.1357H52.5431L51.1058 17.6347H36.6252L41.9455 1.26685Z" fill="white"/>
<path d="M52.7363 11.4434C52.7363 5.78743 57.7133 0.709961 64.3636 0.709961C69.169 0.709961 71.9364 3.25941 71.9364 7.4585C71.9364 13.1144 66.9594 18.1919 60.3091 18.1919C55.4823 18.1919 52.7363 15.6424 52.7363 11.4434ZM66.5304 8.31546C66.5304 6.34446 65.1359 5.35895 63.4841 5.35895C60.2876 5.35895 58.1638 8.12264 58.1209 10.565C58.1209 12.536 59.5154 13.5215 61.1672 13.5215C64.3851 13.5429 66.4875 10.7578 66.5304 8.31546Z" fill="white"/>
<path d="M81.6759 15.4923H74.7467L73.3308 17.6562H67.5601L78.7154 1.26685H86.3311L87.0819 17.6562H81.6973L81.6759 15.4923ZM81.633 11.4861L81.5472 6.32289H80.7749L77.4068 11.4861H81.633Z" fill="white"/>
<path d="M92.9386 1.26685H98.9453L101.627 10.2863H102.185L105.167 1.26685H110.444L105.102 17.6562H99.2457L96.3925 8.7438H95.8347L92.8528 17.6562H87.5754L92.9386 1.26685Z" fill="white"/>
<path d="M38.0623 29.1828C38.0623 31.1323 39.4782 32.1179 41.2588 32.1179C42.1598 32.1179 44.348 31.925 45.3991 29.8898H41.4519L42.3529 27.1475H51.6204L48.6814 36.2312H45.914L46.4718 34.2388C45.0559 35.7599 42.8034 36.7668 40.0574 36.7668C35.4451 36.7668 32.6777 34.3459 32.6777 30.0612C32.6777 24.341 37.5904 19.2849 44.4552 19.2849C49.1962 19.2849 52.1996 22.1771 51.792 25.6478H46.3645C45.9569 24.6195 44.8628 23.9553 43.4255 23.9553C40.2076 23.9339 38.0623 26.569 38.0623 29.1828Z" fill="white"/>
<path d="M63.4407 34.0465H56.5115L55.0742 36.2104H49.3035L60.4588 19.821H68.0745L68.8253 36.2104H63.4407V34.0465ZM63.4193 30.0617L63.3335 24.8985H62.5612L59.1717 30.0617H63.4193Z" fill="white"/>
<path d="M85.4082 30.9611L86.6095 36.2313H81.418L80.4955 32.0108H76.1621L74.8106 36.2313H69.4045L74.6819 19.842H83.2415C87.4033 19.842 89.4198 21.4274 89.4198 24.6196C89.4198 27.5547 87.6822 29.7399 85.4082 30.9611ZM77.4493 28.0474L81.2035 28.026C82.3834 28.026 83.9065 27.2547 83.9065 25.755C83.9065 24.6624 83.2844 24.3196 82.0187 24.3196H78.6506L77.4493 28.0474Z" fill="white"/>
<path d="M101.004 34.0465H94.075L92.6377 36.2104H86.8669L98.0223 19.821H105.638L106.389 36.2104H101.004V34.0465ZM100.961 30.0617L100.875 24.8985H100.103L96.7137 30.0617H100.961Z" fill="white"/>
<path d="M112.589 29.183C112.589 31.1326 114.005 32.1181 115.785 32.1181C116.686 32.1181 118.874 31.9253 119.926 29.89H115.978L116.879 27.1477H126.147L123.208 36.2315H120.44L120.998 34.2391C119.582 35.7602 117.33 36.7671 114.584 36.7671C109.971 36.7671 107.204 34.3462 107.204 30.0614C107.204 24.3412 112.117 19.2852 118.982 19.2852C123.723 19.2852 126.726 22.1774 126.318 25.6481H120.891C120.483 24.6197 119.389 23.9556 117.952 23.9556C114.734 23.9342 112.589 26.5693 112.589 29.183Z" fill="white"/>
<path d="M133.762 24.1487L133.076 26.2482H142.451L141.314 29.6975H131.96L131.231 31.9041H140.649L139.233 36.2104H124.409L129.751 19.821H144.617L143.201 24.1273H133.762V24.1487Z" fill="white"/>
</g>
<defs>
<linearGradient id="paint0_linear_1_250" x1="5.66898" y1="45.4093" x2="39.5306" y2="5.96311" gradientUnits="userSpaceOnUse">
<stop stop-color="#FF390A"/>
<stop offset="0.5168" stop-color="#FF2168"/>
<stop offset="1" stop-color="#EF33BA"/>
</linearGradient>
<linearGradient id="paint1_linear_1_250" x1="0.516734" y1="36.8182" x2="18.6106" y2="1.81227" gradientUnits="userSpaceOnUse">
<stop stop-color="#FF390A"/>
<stop offset="0.5168" stop-color="#FF2168"/>
<stop offset="1" stop-color="#EF33BA"/>
</linearGradient>
<linearGradient id="paint2_linear_1_250" x1="0.316629" y1="40.8148" x2="34.1783" y2="1.36861" gradientUnits="userSpaceOnUse">
<stop stop-color="#FF390A"/>
<stop offset="0.5168" stop-color="#FF2168"/>
<stop offset="1" stop-color="#EF33BA"/>
</linearGradient>
<clipPath id="clip0_1_250">
<rect width="144.226" height="36.0565" fill="white" transform="translate(0.391602 0.710449)"/>
</clipPath>
</defs>
</svg>
