<svg width="26" height="31" viewBox="0 0 26 31" fill="none" xmlns="http://www.w3.org/2000/svg">
<path d="M1.64648 6.44347V25.2911C1.64648 27.6933 3.5938 29.6405 5.99593 29.6405H20.4941C22.8963 29.6405 24.8435 27.6933 24.8435 25.2911V10.7929C24.8435 8.39079 22.8963 6.44347 20.4941 6.44347H1.64648ZM1.64648 6.44347V4.99365" stroke="#F31C1C" stroke-width="2.17472"/>
<path d="M21.9439 6.4437V7.53106H23.0312V6.4437H21.9439ZM3.1993 7.53106H21.9439V5.35634H3.1993V7.53106ZM23.0312 6.4437V3.98774H20.8565V6.4437H23.0312ZM18.4804 0.0408203L2.82591 2.27717L3.13346 4.43004L18.7879 2.19368L18.4804 0.0408203ZM2.82591 2.27717C1.52521 2.46298 0.559082 3.57695 0.559082 4.89084H2.73381C2.73381 4.65919 2.90414 4.4628 3.13346 4.43004L2.82591 2.27717ZM23.0312 3.98774C23.0312 1.56146 20.8823 -0.302307 18.4804 0.0408203L18.7879 2.19368C19.8798 2.03772 20.8565 2.88488 20.8565 3.98774H23.0312ZM3.1993 5.35634C2.94222 5.35634 2.73381 5.14792 2.73381 4.89084H0.559082C0.559082 6.349 1.74115 7.53106 3.1993 7.53106V5.35634Z" fill="#F31616"/>
<path d="M7.44556 15.1426H19.0441H7.44556Z" fill="#F31616"/>
<path d="M7.44556 15.1426H19.0441" stroke="#F31C1C" stroke-width="2.17472" stroke-linecap="round"/>
<path d="M7.44556 20.2168H15.4195H7.44556Z" fill="#F31616"/>
<path d="M7.44556 20.2168H15.4195" stroke="#F31C1C" stroke-width="2.17472" stroke-linecap="round"/>
</svg>
