<svg width="28" height="28" viewBox="0 0 28 28" fill="none" xmlns="http://www.w3.org/2000/svg">
<path fill-rule="evenodd" clip-rule="evenodd" d="M27.5234 3.7532C27.5234 1.68037 25.8431 0 23.7702 0H3.7532C1.68037 0 0 1.68037 0 3.7532V23.7702C0 25.8431 1.68037 27.5234 3.7532 27.5234H23.7702C25.8431 27.5234 27.5234 25.8431 27.5234 23.7702V3.7532ZM25.0213 3.7532C25.0213 3.06226 24.4612 2.50213 23.7702 2.50213H3.7532C3.06226 2.50213 2.50213 3.06226 2.50213 3.7532V23.7702C2.50213 24.4612 3.06226 25.0213 3.7532 25.0213H23.7702C24.4612 25.0213 25.0213 24.4612 25.0213 23.7702V3.7532Z" fill="#EFB31A"/>
<path d="M19.2662 8.71576C19.2662 11.5025 17.007 13.7617 14.2203 13.7617C11.4335 13.7617 9.17432 11.5025 9.17432 8.71576C9.17432 5.92895 11.4335 3.6698 14.2203 3.6698C17.007 3.6698 19.2662 5.92895 19.2662 8.71576ZM11.6685 8.71576C11.6685 10.1251 12.8109 11.2675 14.2203 11.2675C15.6296 11.2675 16.772 10.1251 16.772 8.71576C16.772 7.30644 15.6296 6.16397 14.2203 6.16397C12.8109 6.16397 11.6685 7.30644 11.6685 8.71576Z" fill="#EFB31A"/>
<path fill-rule="evenodd" clip-rule="evenodd" d="M5.70764 19.5034C7.11475 15.7652 10.9593 14.6792 14.2207 14.6792C17.4821 14.6792 21.3266 15.7652 22.7337 19.5034C23.1845 20.7013 22.839 21.8557 22.1345 22.645C21.4561 23.4049 20.4388 23.8537 19.3793 23.8537H9.06196C8.00248 23.8537 6.98524 23.4049 6.30686 22.645C5.60225 21.8557 5.25675 20.7013 5.70764 19.5034ZM14.2207 17.3005C11.2847 17.3005 8.93177 18.2747 8.11675 20.44C8.05378 20.6072 8.10124 20.7539 8.21718 20.8838C8.38478 21.0715 8.69691 21.2324 9.06196 21.2324H19.3793C19.7444 21.2324 20.0565 21.0715 20.2241 20.8838C20.34 20.7539 20.3875 20.6072 20.3245 20.44C19.5096 18.2747 17.1566 17.3005 14.2207 17.3005Z" fill="#EFB31A"/>
</svg>
