<svg width="37" height="37" viewBox="0 0 37 37" fill="none" xmlns="http://www.w3.org/2000/svg">
<path d="M33.8981 3.78003C38.054 7.9358 34.685 18.0426 26.3734 26.3542C18.062 34.6657 7.95516 38.0346 3.79939 33.8789C-0.35637 29.723 3.01254 19.6163 11.3241 11.3047C19.6355 2.99318 29.7424 -0.375754 33.8981 3.78003ZM3.79907 3.78026C-0.356703 7.93604 3.01221 18.0428 11.3238 26.3544C19.6352 34.666 29.742 38.0349 33.8978 33.879C38.0536 29.7233 34.6847 19.6165 26.3731 11.305C18.0616 2.99341 7.95483 -0.375518 3.79907 3.78026Z" stroke="white" stroke-width="2.47494"/>
<path d="M22.4786 19.1595C22.4786 21.3465 20.7057 23.1194 18.5187 23.1194C16.3318 23.1194 14.5588 21.3465 14.5588 19.1595C14.5588 16.9726 16.3318 15.1996 18.5187 15.1996C20.7057 15.1996 22.4786 16.9726 22.4786 19.1595Z" stroke="white" stroke-width="2.47494"/>
</svg>
