<svg width="36" height="29" viewBox="0 0 36 29" fill="none" xmlns="http://www.w3.org/2000/svg">
<path d="M17.947 1.32941L17.947 27.2526" stroke="#F16E0F" stroke-width="0.77951" stroke-linecap="round" stroke-linejoin="round" stroke-dasharray="3.25 3.25"/>
<mask id="mask0_1_66" style="mask-type:alpha" maskUnits="userSpaceOnUse" x="0" y="0" width="16" height="29">
<rect width="15.9528" height="28.582" fill="#0F77F1"/>
</mask>
<g mask="url(#mask0_1_66)">
<path fill-rule="evenodd" clip-rule="evenodd" d="M5.92865 3.95722C8.80073 2.52118 12.6987 1.66174 16.9498 1.66174C21.201 1.66174 25.099 2.52118 27.971 3.95722C30.7835 5.36344 32.9026 7.49059 32.9026 10.1366V19.2762C32.9026 20.5184 32.332 21.6267 31.4525 22.5509C30.5779 23.4699 29.3595 24.2522 27.9301 24.8875C27.2037 25.2103 26.4114 25.5003 25.5642 25.7532C25.5504 25.7577 25.5365 25.7618 25.5224 25.7656C23.0413 26.5013 20.0928 26.9203 16.9498 26.9203C13.8071 26.9203 10.8587 26.5013 8.37765 25.7658C8.36334 25.7618 8.34915 25.7576 8.3351 25.7531C7.48806 25.5002 6.69592 25.2103 5.96961 24.8875C4.54023 24.2522 3.32177 23.4699 2.44716 22.5509C1.56766 21.6267 0.99707 20.5184 0.99707 19.2762V10.1366C0.99707 7.49059 3.11621 5.36344 5.92865 3.95722ZM2.99117 14.3084V19.2762C2.99117 19.8696 3.25757 20.5099 3.89167 21.1762C4.53066 21.8476 5.50241 22.4977 6.77949 23.0652C7.05571 23.188 7.34416 23.306 7.64405 23.4188V17.0597C7.03928 16.8333 6.46601 16.5848 5.92865 16.3161C4.80986 15.7567 3.80078 15.0832 2.99117 14.3084ZM8.93502 15.4022C8.17041 15.1453 7.46227 14.8534 6.82044 14.5325C4.21998 13.2323 2.99117 11.6205 2.99117 10.1366C2.99117 8.6528 4.21998 7.04102 6.82044 5.74079C9.36127 4.47038 12.9412 3.65584 16.9498 3.65584C20.9585 3.65584 24.5384 4.47038 27.0792 5.74079C29.6797 7.04102 30.9085 8.6528 30.9085 10.1366C30.9085 11.6205 29.6797 13.2323 27.0792 14.5325C26.4375 14.8534 25.7295 15.1452 24.965 15.4021C24.9495 15.4069 24.9342 15.412 24.919 15.4175C22.6654 16.1686 19.9258 16.6175 16.9498 16.6175C13.9737 16.6175 11.234 16.1685 8.9803 15.4174C8.96537 15.412 8.95027 15.4069 8.93502 15.4022ZM9.63815 17.6953V24.0471C11.4965 24.5322 13.6425 24.8416 15.9528 24.9112V18.5957C13.695 18.5238 11.5551 18.2089 9.63815 17.6953ZM17.9469 18.5957V24.9112C20.2572 24.8416 22.4031 24.5322 24.2615 24.0471V17.6953C22.3446 18.2089 20.2047 18.5238 17.9469 18.5957ZM26.2556 17.0597V23.4188C26.5555 23.306 26.844 23.188 27.1202 23.0652C28.3973 22.4977 29.369 21.8476 30.008 21.1762C30.6421 20.5099 30.9085 19.8696 30.9085 19.2762V14.3084C30.0989 15.0832 29.0898 15.7567 27.971 16.3161C27.4337 16.5848 26.8604 16.8333 26.2556 17.0597Z" fill="#F16E0F"/>
</g>
<mask id="mask1_1_66" style="mask-type:alpha" maskUnits="userSpaceOnUse" x="19" y="0" width="17" height="29">
<rect width="15.9528" height="28.582" transform="matrix(-1 0 0 1 35.8938 0)" fill="#0F77F1"/>
</mask>
<g mask="url(#mask1_1_66)">
<path fill-rule="evenodd" clip-rule="evenodd" d="M29.9651 3.95722C27.0931 2.52118 23.1951 1.66174 18.944 1.66174C14.6928 1.66174 10.7948 2.52118 7.92276 3.95722C5.11032 5.36344 2.9912 7.49059 2.9912 10.1366V19.2762C2.9912 20.5184 3.56178 21.6267 4.44128 22.5509C5.31589 23.4699 6.53434 24.2522 7.96371 24.8875C8.69014 25.2103 9.48242 25.5003 10.3296 25.7532C10.3434 25.7577 10.3573 25.7618 10.3714 25.7656C12.8525 26.5013 15.801 26.9203 18.944 26.9203C22.0867 26.9203 25.0351 26.5013 27.5161 25.7658C27.5305 25.7618 27.5446 25.7576 27.5587 25.7531C28.4057 25.5002 29.1979 25.2103 29.9242 24.8875C31.3536 24.2522 32.572 23.4699 33.4466 22.5509C34.3261 21.6267 34.8967 20.5184 34.8967 19.2762V10.1366C34.8967 7.49059 32.7776 5.36344 29.9651 3.95722ZM32.9026 14.3084V19.2762C32.9026 19.8696 32.6362 20.5099 32.0021 21.1762C31.3631 21.8476 30.3914 22.4977 29.1143 23.0652C28.8381 23.188 28.5496 23.306 28.2497 23.4188V17.0597C28.8545 16.8333 29.4278 16.5848 29.9651 16.3161C31.0839 15.7567 32.093 15.0832 32.9026 14.3084ZM26.9588 15.4022C27.7234 15.1453 28.4315 14.8534 29.0734 14.5325C31.6738 13.2323 32.9026 11.6205 32.9026 10.1366C32.9026 8.6528 31.6738 7.04102 29.0734 5.74079C26.5325 4.47038 22.9526 3.65584 18.944 3.65584C14.9353 3.65584 11.3554 4.47038 8.81455 5.74079C6.2141 7.04102 4.9853 8.6528 4.9853 10.1366C4.9853 11.6205 6.2141 13.2323 8.81455 14.5325C9.45629 14.8534 10.1643 15.1452 10.9288 15.4021C10.9443 15.4069 10.9596 15.412 10.9748 15.4175C13.2284 16.1686 15.968 16.6175 18.944 16.6175C21.9201 16.6175 24.6598 16.1685 26.9135 15.4174C26.9284 15.412 26.9435 15.4069 26.9588 15.4022ZM26.2556 17.6953V24.0471C24.3973 24.5322 22.2513 24.8416 19.941 24.9112V18.5957C22.1988 18.5238 24.3387 18.2089 26.2556 17.6953ZM17.9469 18.5957V24.9112C15.6366 24.8416 13.4907 24.5322 11.6323 24.0471V17.6953C13.5492 18.2089 15.6891 18.5238 17.9469 18.5957ZM9.63819 17.0597V23.4188C9.33829 23.306 9.04983 23.188 8.7736 23.0652C7.49653 22.4977 6.52478 21.8476 5.8858 21.1762C5.2517 20.5099 4.9853 19.8696 4.9853 19.2762V14.3084C5.7949 15.0832 6.80398 15.7567 7.92276 16.3161C8.46013 16.5848 9.0334 16.8333 9.63819 17.0597Z" fill="#F16E0F"/>
</g>
</svg>
