<svg width="32" height="36" viewBox="0 0 32 36" fill="none" xmlns="http://www.w3.org/2000/svg">
<path d="M18.7644 19.3754L18.7649 19.3759C19.1445 19.7521 19.7721 19.7248 20.0949 19.3705C20.2922 19.168 20.3887 18.9061 20.3887 18.6018C20.3887 17.556 20.0242 16.6865 19.2985 16.029L19.2985 16.029L19.2972 16.0279C18.6673 15.4702 17.8553 15.1396 16.8881 15.0358V14.4351C16.8881 14.184 16.8107 13.9656 16.6519 13.8102C16.4935 13.6551 16.2718 13.5799 16.0167 13.5799C15.7663 13.5799 15.5487 13.6558 15.3936 13.8115C15.2385 13.9671 15.1632 14.185 15.1632 14.4351V15.0335C14.1911 15.1284 13.3634 15.4595 12.7043 16.0254L12.7043 16.0254L12.7036 16.026C11.8799 16.7424 11.4647 17.7049 11.4647 18.8733C11.4647 19.8902 11.8391 20.7316 12.5795 21.3598C13.1763 21.8732 14.0287 22.2646 15.1632 22.5616V27.2336C14.5835 27.1276 14.1306 26.9353 13.8048 26.6661C13.2786 26.2203 13.0172 25.5659 13.0281 24.6307H13.0281V24.629C13.0281 24.3297 12.9407 24.0697 12.761 23.8881C12.4143 23.5041 11.7804 23.5125 11.4522 23.8782C11.2639 24.0684 11.1764 24.3279 11.1764 24.6284C11.1764 26.1888 11.6502 27.3794 12.6143 28.1408L12.6142 28.1409L12.6172 28.1431C13.2374 28.6088 14.0966 28.9082 15.1627 29.048V30.0043C15.1627 30.2592 15.2373 30.4809 15.3919 30.6393C15.547 30.7983 15.7651 30.8758 16.0162 30.8758C16.272 30.8758 16.4942 30.799 16.6525 30.6407C16.8108 30.4823 16.8876 30.2602 16.8876 30.0043V29.0674C17.9003 28.9289 18.7761 28.5546 19.4893 27.9448L19.4896 27.9446C20.3606 27.196 20.8031 26.221 20.8031 25.0608C20.8031 23.9718 20.4165 23.0908 19.6477 22.4605C19.0567 21.969 18.1463 21.5529 16.8881 21.1842V16.8515C17.257 16.917 17.5609 17.0398 17.798 17.212C18.2102 17.5192 18.4328 17.9717 18.4647 18.6062C18.4655 18.9109 18.5626 19.1736 18.7644 19.3754ZM15.1631 20.6986C14.5637 20.4965 14.1345 20.2538 13.8693 19.9815C13.5603 19.6633 13.4065 19.2641 13.4065 18.7471C13.4065 18.1238 13.6366 17.6568 14.11 17.3017C14.4087 17.0801 14.7609 16.9265 15.1631 16.8443V20.6986ZM18.0524 26.7024L18.0523 26.7024L18.0506 26.7037C17.7172 26.9501 17.3282 27.125 16.8881 27.2233V23.0642C17.6097 23.2792 18.0916 23.5072 18.3464 23.738L18.3478 23.7393C18.6654 24.0201 18.8433 24.4894 18.8433 25.1695C18.8433 25.8224 18.5887 26.3177 18.0524 26.7024Z" fill="white" stroke="white" stroke-width="0.300434"/>
<path d="M22.7094 0.96166H22.7093H22.7093H22.7092H22.7092H22.7092H22.7092H22.7092H22.7092H22.7091H22.7091H22.7091H22.7091H22.7091H22.709H22.709H22.709H22.709H22.709H22.7089H22.7089H22.7089H22.7089H22.7089H22.7088H22.7088H22.7088H22.7088H22.7088H22.7087H22.7087H22.7087H22.7087H22.7087H22.7086H22.7086H22.7086H22.7086H22.7086H22.7085H22.7085H22.7085H22.7085H22.7085H22.7084H22.7084H22.7084H22.7084H22.7084H22.7083H22.7083H22.7083H22.7083H22.7083H22.7082H22.7082H22.7082H22.7082H22.7082H22.7082H22.7081H22.7081H22.7081H22.7081H22.7081H22.708H22.708H22.708H22.708H22.708H22.7079H22.7079H22.7079H22.7079H22.7079H22.7078H22.7078H22.7078H22.7078H22.7078H22.7077H22.7077H22.7077H22.7077H22.7077H22.7076H22.7076H22.7076H22.7076H22.7076H22.7075H22.7075H22.7075H22.7075H22.7075H22.7074H22.7074H22.7074H22.7074H22.7074H22.7073H22.7073H22.7073H22.7073H22.7073H22.7072H22.7072H22.7072H22.7072H22.7072H22.7071H22.7071H22.7071H22.7071H22.7071H22.7071H22.707H22.707H22.707H22.707H22.707H22.7069H22.7069H22.7069H22.7069H22.7069H22.7068H22.7068H22.7068H22.7068H22.7068H22.7067H22.7067H22.7067H22.7067H22.7067H22.7066H22.7066H22.7066H22.7066H22.7066H22.7065H22.7065H22.7065H22.7065H22.7065H22.7064H22.7064H22.7064H22.7064H22.7064H22.7063H22.7063H22.7063H22.7063H22.7063H22.7062H22.7062H22.7062H22.7062H22.7062H22.7061H22.7061H22.7061H22.7061H22.7061H22.706H22.706H22.706H22.706H22.706H22.7059H22.7059H22.7059H22.7059H22.7059H22.7059H22.7058H22.7058H22.7058H22.7058H22.7058H22.7057H22.7057H22.7057H22.7057H22.7057H22.7056H22.7056H22.7056H22.7056H22.7056H22.7055H22.7055H22.7055H22.7055H22.7055H22.7054H22.7054H22.7054H22.7054H22.7054H22.7053H22.7053H22.7053H22.7053H22.7053H22.7052H22.7052H22.7052H22.7052H22.7052H22.7051H22.7051H22.7051H22.7051H22.7051H22.705H22.705H22.705H22.705H22.705H22.7049H22.7049H22.7049H22.7049H22.7049H22.7048H22.7048H22.7048H22.7048H22.7048H22.7047H22.7047H22.7047H22.7047H22.7047H22.7046H22.7046H22.7046H22.7046H22.7046H22.7045H22.7045H22.7045H22.7045H22.7045H22.7045H22.7044H22.7044H22.7044H22.7044H22.7044H22.7043H22.7043H22.7043H22.7043H22.7043H22.7042H22.7042H22.7042H22.7042H22.7042H22.7041H22.7041H22.7041H22.7041H22.7041H22.704H22.704H22.704H22.704H22.704H22.7039H22.7039H22.7039H22.7039H22.7039H22.7038H22.7038H22.7038H22.7038H22.7038H22.7037H22.7037H22.7037H22.7037H22.7037H22.7036H22.7036H22.7036H22.7036H22.7036H22.7035H22.7035H22.7035H22.7035H22.7035H22.7034H22.7034H22.7034H22.7034H22.7034H22.7033H22.7033H22.7033H22.7033H22.7033H22.7032H22.7032H22.7032H22.7032H22.7032H22.7031H22.7031H22.7031H22.7031H22.7031H22.703H22.703H22.703H22.703H22.703H22.7029H22.7029H22.7029H22.7029H22.7029H22.7029H22.7028H22.7028H22.7028H22.7028H22.7028H22.7027H22.7027H22.7027H22.7027H22.7027H22.7026H22.7026H22.7026H22.7026H22.7026H22.7025H22.7025H22.7025H22.7025H22.7025H22.7024H22.7024H22.7024H22.7024H22.7024H22.7023H22.7023H22.7023H22.7023H22.7023H22.7022H22.7022H22.7022H22.7022H22.7022H22.7021H22.7021H22.7021H22.7021H22.7021H22.702H22.702H22.702H22.702H22.702H22.7019H22.7019H22.7019H22.7019H22.7019H22.7018H22.7018H22.7018H22.7018H22.7018H22.7017H22.7017H22.7017H22.7017H22.7017H22.7016H22.7016H22.7016H22.7016H22.7016H22.7015H22.7015H22.7015H22.7015H22.7015H22.7014H22.7014H22.7014H22.7014H22.7014H22.7013H22.7013H22.7013H22.7013H22.7013H22.7012H22.7012H22.7012H22.7012H22.7012H22.7011H22.7011H22.7011H22.7011H22.7011H22.701H22.701H22.701H22.701H22.701H22.7009H22.7009H22.7009H22.7009H22.7009H22.7008H22.7008H22.7008H22.7008H22.7008H22.7007H22.7007H22.7007H22.7007H22.7007H22.7006H22.7006H22.7006H22.7006H22.7006H22.7005H22.7005H22.7005H22.7005H22.7005H22.7004H22.7004H22.7004H22.7004H22.7004H22.7003H22.7003H22.7003H22.7003H22.7003H22.7002H22.7002H22.7002H22.7002H22.7002H22.7001H22.7001H22.7001H22.7001H22.7001H22.7H22.7H22.7H22.7H22.7H22.6999H22.6999H22.6999H22.6999H22.6999H22.6998H22.6998H22.6998H22.6998H22.6998H22.6997H22.6997H22.6997H22.6997H22.6997H22.6996H22.6996H22.6996H22.6996H22.6996H22.6995H22.6995H22.6995H22.6995H22.6995H22.6994H22.6994H22.6994H22.6994H22.6994H22.6993H22.6993H22.6993H22.6993H22.6993H22.6992H22.6992H22.6992H22.6992H22.6992C22.6606 0.96166 22.6222 0.96288 22.5833 0.965302L22.5831 0.965315C22.3252 0.981713 22.0813 1.05098 21.8628 1.1636C21.5864 1.29643 18.7144 2.64409 15.9695 2.64409C13.1224 2.64409 10.1398 1.19424 10.057 1.15398L10.0569 1.15392C10.0567 1.15385 10.0565 1.15377 10.0564 1.15369C9.79768 1.02564 9.51868 0.962778 9.2415 0.962778C8.79026 0.962778 8.34428 1.12889 7.99784 1.44842L7.99777 1.44848C7.43968 1.96385 7.25559 2.7696 7.53789 3.47542L10.3113 10.4097C8.55332 11.7635 6.64447 14.1704 5.44814 15.8015L5.44813 15.8015C4.56045 17.012 3.37002 18.7652 2.4009 20.6535C1.43384 22.5378 0.67742 24.5749 0.67742 26.3483C0.67742 31.0697 4.51838 34.9107 9.23979 34.9107H22.6992C27.4206 34.9107 31.2616 31.0697 31.2616 26.3483C31.2616 24.5749 30.5052 22.5378 29.5381 20.6534C28.5689 18.7651 27.3783 17.0117 26.4903 15.801C25.294 14.1698 23.3851 11.7629 21.6272 10.4091L24.3589 3.57987C24.4724 3.34199 24.5364 3.07526 24.5364 2.79431C24.5364 1.78323 23.7216 0.962305 22.7094 0.96166ZM22.4189 3.09072L19.9056 9.37381H12.0334L9.52014 3.09072C9.59018 3.12206 9.67003 3.15715 9.75895 3.19526C10.1301 3.35431 10.6598 3.56618 11.2953 3.77803C12.5646 4.20114 14.2644 4.62696 15.9695 4.62696C17.6747 4.62696 19.3744 4.20114 20.6437 3.77803C21.2793 3.56618 21.809 3.35431 22.1801 3.19526C22.269 3.15715 22.3488 3.12206 22.4189 3.09072ZM8.09966 1.55881L8.09967 1.55883L8.09966 1.55881ZM9.23979 32.9278C5.60571 32.9278 2.66028 29.9818 2.66028 26.3483C2.66028 25.1217 3.17351 23.5697 3.98554 21.9194C4.79555 20.2733 5.89452 18.5459 7.04758 16.9735C8.20063 15.4012 9.40497 13.9877 10.4238 12.9688C10.9336 12.4591 11.3941 12.0509 11.7765 11.7713C11.9678 11.6315 12.1366 11.526 12.2799 11.4561C12.4259 11.3848 12.533 11.3567 12.6047 11.3567H19.3344C19.406 11.3567 19.5131 11.3848 19.6591 11.4561C19.8024 11.526 19.9712 11.6315 20.1625 11.7713C20.5449 12.0509 21.0055 12.4591 21.5152 12.9688C22.5341 13.9877 23.7384 15.4012 24.8914 16.9735C26.0445 18.5459 27.1435 20.2733 27.9535 21.9194C28.7655 23.5697 29.2787 25.1217 29.2787 26.3483C29.2787 29.9818 26.3333 32.9278 22.6992 32.9278H9.23979Z" fill="white" stroke="white" stroke-width="0.300434"/>
</svg>
