<svg width="30" height="30" viewBox="0 0 30 30" fill="none" xmlns="http://www.w3.org/2000/svg">
<path fill-rule="evenodd" clip-rule="evenodd" d="M5.42704 4.33857C3.19144 6.2312 1.80081 8.97214 1.80081 12.4081V15.1767C1.80081 19.8632 3.23028 22.9671 5.43712 24.9106C7.65966 26.868 10.7735 27.7395 14.3094 27.7395V27.7396H14.3635H15.2321C18.768 27.7396 21.8824 26.868 24.1052 24.9167C26.3119 22.9795 27.7407 19.8892 27.7407 15.231V12.4625C27.7407 9.0265 26.35 6.28556 24.1144 4.39293C21.8681 2.49124 18.7344 1.41962 15.2321 1.41962H14.3635H13.9836V1.36837C10.6129 1.43275 7.60344 2.49605 5.42704 4.33857ZM4.5348 25.9352C7.01495 28.1194 10.3691 29.0501 13.9836 29.1024V29.1048H14.3635H15.2321C18.9704 29.1048 22.4516 28.185 25.0058 25.9428C27.5761 23.6865 29.1059 20.1812 29.1059 15.231V12.4625C29.1059 8.62432 27.538 5.50251 24.9966 3.35093C22.4658 1.20841 19.004 0.0543551 15.2321 0.0543551H14.3635H14.3094V0C10.5375 0 7.07566 1.15405 4.54489 3.29657C2.00343 5.44815 0.435547 8.56996 0.435547 12.4081V15.1767C0.435547 20.1528 1.96459 23.6716 4.5348 25.9352ZM18.1093 10.4547V8.39185C18.0007 8.36471 17.8922 8.35114 17.7836 8.33757C17.675 8.324 17.5665 8.31043 17.4579 8.28329H16.2636C15.6122 8.33757 15.0151 8.44614 14.5265 8.82613C13.9294 9.26041 13.6037 9.85754 13.4951 10.5632C13.4408 10.8347 13.4408 11.1604 13.4408 11.4318V11.4318V12.7889V12.9518H11.4866V15.2317H13.4408V21.0402H15.8294V15.286H17.7836C17.8379 14.526 17.9465 13.766 18.055 13.0061H17.6207H15.7751V11.3775C15.8294 10.6718 16.2093 10.4547 16.7522 10.4547H17.9465H18.1093Z" fill="white"/>
</svg>
