<svg width="35" height="27" viewBox="0 0 35 27" fill="none" xmlns="http://www.w3.org/2000/svg">
<path d="M30.9579 0.434164C30.5845 0.193308 30.1573 0.0475955 29.7141 0.00983435C29.2709 -0.0279268 28.8252 0.0434197 28.4161 0.217602L15.0119 5.48004C14.6945 5.60879 14.3552 5.67498 14.0125 5.67495H5.43122C4.71099 5.67495 4.02027 5.96015 3.51099 6.46782C3.00172 6.97548 2.71561 7.66402 2.71561 8.38197V8.59853H0V15.0954H2.71561V15.3769C2.73263 16.0835 3.02623 16.7555 3.53367 17.2492C4.04112 17.7429 4.72215 18.0192 5.43122 18.0189L8.68995 24.9056C8.91061 25.3694 9.25801 25.7617 9.69225 26.0375C10.1265 26.3133 10.63 26.4614 11.1449 26.4648H12.5135C13.23 26.4591 13.9151 26.1714 14.4197 25.6644C14.9243 25.1573 15.2074 24.472 15.2074 23.7578V18.2788L28.4161 23.5413C28.741 23.6701 29.0875 23.7363 29.4372 23.7362C29.9797 23.7274 30.508 23.5619 30.9579 23.2597C31.3153 23.0192 31.61 22.6974 31.8178 22.3208C32.0256 21.9442 32.1404 21.5237 32.1528 21.0941V2.66475C32.1508 2.22408 32.0409 1.79056 31.8327 1.40183C31.6245 1.01311 31.3242 0.680936 30.9579 0.434164ZM12.4918 8.38197V15.3769H5.43122V8.38197H12.4918ZM12.4918 23.7578H11.1231L8.45098 18.0189H12.4918V23.7578ZM16.0112 15.7017C15.7533 15.5703 15.4843 15.4616 15.2074 15.3769V8.23037C15.4817 8.17396 15.7506 8.09427 16.0112 7.99216L29.4372 2.66475V21.0292L16.0112 15.7017ZM32.218 9.13993V14.554C32.9382 14.554 33.6289 14.2688 34.1382 13.7611C34.6475 13.2534 34.9336 12.5649 34.9336 11.8469C34.9336 11.129 34.6475 10.4405 34.1382 9.9328C33.6289 9.42513 32.9382 9.13993 32.218 9.13993Z" fill="#5F9DFA"/>
</svg>
