<svg width="33" height="35" viewBox="0 0 33 35" fill="none" xmlns="http://www.w3.org/2000/svg">
<path d="M11.3581 17.7646L14.9018 21.2945L21.9892 14.2347M30.8485 17.7646C30.8485 25.6382 21.1742 31.3436 17.8101 33.0897C17.4463 33.2786 17.2644 33.373 17.0121 33.4219C16.8154 33.46 16.5319 33.46 16.3352 33.4219C16.0829 33.373 15.9009 33.2786 15.5372 33.0897C12.173 31.3436 2.49878 25.6382 2.49878 17.7646V11.0888C2.49878 9.67771 2.49878 8.97217 2.73047 8.36567C2.93513 7.82989 3.26773 7.35183 3.6995 6.97281C4.18824 6.54376 4.85145 6.29603 6.17786 5.80056L15.6782 2.25182C16.0466 2.11422 16.2307 2.04542 16.4203 2.01813C16.5882 1.99396 16.759 1.99396 16.927 2.01813C17.1166 2.04542 17.3007 2.11422 17.6691 2.25182L27.1694 5.80056C28.4958 6.29603 29.159 6.54376 29.6477 6.97281C30.0795 7.35183 30.4121 7.82989 30.6167 8.36567C30.8485 8.97217 30.8485 9.67771 30.8485 11.0888V17.7646Z" stroke="white" stroke-width="3.10075" stroke-linecap="round" stroke-linejoin="round"/>
</svg>
